<svg width="254" height="239" viewBox="0 0 254 239" fill="none" xmlns="http://www.w3.org/2000/svg">
<path d="M151.52 3.32348C161.842 3.3805 197.912 1.30473 204.346 7.00762C220.063 21.2393 234.704 37.7681 248.771 53.639C255.112 60.7927 253.494 78.3718 253.465 87.6823L253.331 127.218C253.31 144.017 253.753 160.968 253.293 177.729C252.722 198.541 223.012 200.598 207.061 204.286L150.13 217.613L93.7896 231.028C69.3644 236.986 33.4229 252.122 32.2034 212.416C30.9104 170.286 34.3184 125.678 31.1729 83.8639C37.9701 92.3454 41.1479 95.9928 49.2899 103.201C49.4609 114.376 49.3588 125.851 49.3881 137.052C49.4331 150.733 47.5484 211.175 50.6781 219.39C51.2939 221.006 52.0978 221.602 53.6886 222.132C56.5611 223.09 60.3231 222.455 63.2384 221.894C73.2966 219.958 83.3136 217.123 93.2901 214.767L159.391 199.059C172.235 196.016 226.096 184.585 234.733 179.941C237.863 170.687 235.76 88.3065 236.095 72.7807C225.849 72.6756 198.904 75.5069 191.792 68.2728C185.212 61.5797 188.133 29.3991 188.235 19.1629C164.628 18.8425 140.959 19.1178 117.346 18.9385C108.712 18.8733 100.006 18.859 91.3858 19.3691C84.9651 24.1118 76.8808 31.1553 70.6303 36.4043C67.3236 32.3383 63.9921 28.2933 60.6351 24.2686C67.3799 17.8275 76.6656 9.1704 85.2411 5.56577C95.6526 1.18995 137.8 3.51403 151.52 3.32348ZM203.704 57.5167C211.552 57.5227 224.947 57.8903 232.381 57.0553C227.398 51.7103 207.478 29.3961 203.657 26.4951C203.586 36.8357 203.601 47.1762 203.704 57.5167Z" fill="#536278"/>
<path d="M52.8148 27.8105L53.54 27.8406C55.1975 29.6688 56.5453 31.6898 57.8773 33.7588C67.1983 48.2388 77.216 62.2492 86.741 76.592C86.9375 85.087 86.885 93.6384 87.1625 102.119C87.6995 118.555 70.91 107.704 63.152 103.795C60.0155 102.307 52.715 98.8041 50.6405 96.3135C39.398 82.8162 27.311 61.3242 17.9263 46.2013C29.576 40.043 40.9798 33.6215 52.8148 27.8105ZM56.336 86.7787C59.2768 88.3609 62.3578 90.0855 65.363 91.5011C68.6833 93.0337 72.3365 94.8169 75.71 96.1208C75.8143 92.3646 76.817 78.9715 74.7815 76.6077L73.9948 76.3954C67.6333 79.6482 62.2183 82.6685 56.336 86.7787Z" fill="#68D44A"/>
<path d="M107.169 98.9758C139.941 98.2954 174.691 98.87 207.621 98.8565C208.064 105.049 208.164 107.622 207.68 113.88C174.167 113.758 140.653 113.814 107.14 114.047C106.905 109.07 107.079 103.967 107.169 98.9758Z" fill="#536278"/>
<path d="M78.0861 130.51L179.932 130.453L179.971 144.719C169.342 145.31 155.431 144.86 144.484 144.848L77.9458 144.887L78.0861 130.51Z" fill="#536278"/>
<path d="M33.5647 0C37.8052 1.51087 45.8955 14.8146 48.8812 19.2399C37.296 24.9353 25.812 30.834 14.4353 36.9338L13.0522 37.4281C9.51147 35.4071 2.29275 22.3195 0 18.2122C5.58825 13.6668 26.9917 2.01049 33.5647 0Z" fill="#67AE54"/>
</svg>
